/usr/bin/ffmpeg -hide_banner -y -y -r 8 -start_number 0 -start_number_range 1 -i /home/kooks/Web/Kookie FVWM/frame%04d.png -i /home/kooks/Web/Kookie FVWM/KritaTempPalettegen_%06d.png -lavfi [0:v][1:v]paletteuse=dither=sierra2_4a:diff_mode=none -f gif -loop 0 -gifflags +transdiff /home/kooks/Web/Kookie FVWM/cursor.gif
=====================================================
Input #0, image2, from '/home/kooks/Web/Kookie FVWM/frame%04d.png':
  Duration: 00:00:00.16, start: 0.000000, bitrate: N/A
  Stream #0:0: Video: png, rgba(pc, gbr/unknown/unknown), 128x128 [SAR 3937:3937 DAR 1:1], 25 fps, 25 tbr, 25 tbn
Input #1, image2, from '/home/kooks/Web/Kookie FVWM/KritaTempPalettegen_%06d.png':
  Duration: 00:00:00.04, start: 0.000000, bitrate: N/A
  Stream #1:0: Video: png, rgba(pc, gbr/unknown/unknown), 16x16 [SAR 1:1 DAR 1:1], 25 fps, 25 tbr, 25 tbn
Stream mapping:
  Stream #0:0 (png) -> paletteuse
  Stream #1:0 (png) -> paletteuse
  paletteuse:default -> Stream #0:0 (gif)
Press [q] to stop, [?] for help
Output #0, gif, to '/home/kooks/Web/Kookie FVWM/cursor.gif':
  Metadata:
    encoder         : Lavf61.1.100
  Stream #0:0: Video: gif, pal8(pc, gbr/unknown/unknown, progressive), 128x128 [SAR 1:1 DAR 1:1], q=2-31, 200 kb/s, 8 fps, 100 tbn
      Metadata:
        encoder         : Lavc61.3.100 gif
[out#0/gif @ 0x560476bee8c0] video:7KiB audio:0KiB subtitle:0KiB other streams:0KiB global headers:0KiB muxing overhead: 0.282048%
frame=    4 fps=0.0 q=-0.0 Lsize=       7KiB time=00:00:00.50 bitrate= 113.8kbits/s speed=6.08x    
